<?xml version="1.0" standalone="no"?>
<!DOCTYPE svg PUBLIC "-//W3C//DTD SVG 20010904//EN"
 "http://www.w3.org/TR/2001/REC-SVG-20010904/DTD/svg10.dtd">
<svg version="1.0" xmlns="http://www.w3.org/2000/svg"
 width="1240.000000pt" height="775.000000pt" viewBox="0 0 1240.000000 775.000000"
 preserveAspectRatio="xMidYMid meet">

<g transform="translate(0.000000,775.000000) scale(0.100000,-0.100000)"
fill="#000000" stroke="none">
<path d="M0 3875 l0 -3875 6200 0 6200 0 0 3875 0 3875 -6200 0 -6200 0 0
-3875z m7580 833 c-11 -29 -20 -57 -20 -63 0 -5 20 -18 45 -29 88 -36 142
-133 128 -233 -5 -35 -2 -43 16 -52 27 -15 51 -62 51 -100 0 -65 -127 -163
-182 -142 -12 5 -63 47 -113 93 -49 46 -111 99 -137 116 -73 50 -93 91 -93
192 0 72 4 92 24 127 14 24 33 45 43 49 10 3 18 10 18 15 0 13 20 11 50 -4 21
-11 27 -11 38 2 12 14 13 14 8 -2 -4 -13 6 -9 35 15 23 18 48 41 57 51 9 9 24
17 34 17 17 0 17 -3 -2 -52z m-759 -81 c-10 -9 -11 -8 -5 6 3 10 9 15 12 12 3
-3 0 -11 -7 -18z m26 1 c-3 -8 -6 -5 -6 6 -1 11 2 17 5 13 3 -3 4 -12 1 -19z
m-107 -21 c11 3 20 0 20 -6 0 -6 -8 -11 -18 -11 -20 0 -42 18 -42 35 0 5 5 3
10 -7 6 -10 18 -14 30 -11z m-56 -5 c-16 -11 -24 -41 -14 -47 6 -4 10 1 10 9
0 8 5 18 12 22 8 5 9 2 5 -9 -7 -19 9 -23 17 -4 3 8 5 7 4 -3 -3 -25 21 -60
37 -54 21 8 19 24 -2 25 -10 0 -13 3 -7 5 6 3 23 0 38 -6 34 -12 38 5 -53
-237 -39 -104 -40 -128 -2 -77 15 21 69 91 119 154 195 245 182 231 203 219
20 -10 22 -34 3 -34 -5 0 -15 -4 -22 -9 -12 -7 -12 -4 -2 14 16 30 9 33 -13 4
-10 -13 -13 -24 -7 -24 5 0 10 -10 11 -22 l0 -23 9 23 c6 14 17 22 32 21 13 0
18 -3 12 -5 -18 -8 7 -74 28 -74 13 0 18 -8 18 -27 0 -16 12 -42 28 -60 15
-18 35 -44 45 -58 14 -19 24 -24 42 -19 40 10 46 -5 14 -34 -35 -32 -48 -87
-29 -131 7 -17 90 -98 196 -192 101 -90 184 -166 184 -170 0 -13 -99 -29 -173
-29 -210 0 -423 82 -570 219 l-62 59 -70 -66 c-80 -74 -181 -151 -272 -206
-122 -73 -314 -152 -416 -171 -35 -7 -40 -12 -88 -105 -125 -244 -322 -441
-564 -564 -96 -49 -183 -82 -192 -72 -3 3 50 119 117 258 174 357 210 436 210
463 0 24 -33 55 -57 55 -7 0 -75 -53 -150 -118 -318 -272 -470 -394 -528 -423
-124 -61 -242 -47 -334 39 -42 39 -51 54 -51 82 0 78 66 93 137 30 99 -87 160
-67 398 131 39 32 185 151 325 264 140 114 311 252 380 308 68 56 134 110 146
120 24 18 22 13 -75 -250 -17 -46 -27 -83 -22 -83 4 0 28 30 53 68 144 219
333 494 356 517 31 31 202 149 208 143 5 -5 -62 -194 -166 -473 -90 -241 -130
-355 -126 -355 5 0 140 180 171 228 29 43 44 57 25 22 -16 -30 -7 -24 20 12
18 25 19 30 6 25 -10 -4 -15 -3 -11 3 3 6 14 10 24 10 14 0 17 6 14 28 -3 18
-2 23 5 14 7 -10 11 -10 22 2 7 9 17 13 22 10 5 -3 43 17 85 46 42 29 115 73
162 97 132 70 125 60 92 124 -15 30 -31 66 -34 81 -4 15 -12 40 -18 55 -10 26
-11 27 -24 9 -8 -11 -19 -15 -26 -10 -9 5 -10 2 -5 -12 4 -10 4 -15 0 -12 -4
4 -16 2 -27 -4 -19 -10 -19 -8 3 28 13 22 43 67 67 102 24 35 43 65 43 68 0
12 53 74 59 69 3 -3 1 -9 -5 -13z m137 -38 c-5 -16 -10 -21 -10 -12 -1 18 10
51 15 45 2 -1 -1 -16 -5 -33z m-512 -544 c-13 -22 -26 -40 -31 -40 -5 0 4 18
18 40 15 22 29 40 31 40 2 0 -6 -18 -18 -40z"/>
<path d="M6650 4540 c0 -5 5 -10 11 -10 5 0 7 5 4 10 -3 6 -8 10 -11 10 -2 0
-4 -4 -4 -10z"/>
<path d="M6703 4523 c-7 -3 -13 -16 -13 -29 0 -22 3 -23 20 -14 14 7 20 7 20
0 0 -5 15 0 34 12 37 25 41 37 6 18 -17 -9 -25 -9 -38 3 -9 8 -23 12 -29 10z"/>
<path d="M6602 4480 c-7 -11 -12 -25 -12 -32 0 -7 7 0 15 16 18 33 15 45 -3
16z"/>
<path d="M6626 4475 c-9 -26 -7 -32 5 -12 6 10 9 21 6 23 -2 3 -7 -2 -11 -11z"/>
<path d="M6646 4445 c-25 -19 -9 -19 24 0 14 8 19 14 10 14 -8 0 -24 -6 -34
-14z"/>
<path d="M6291 3947 c-13 -21 -12 -21 5 -5 10 10 16 20 13 22 -3 3 -11 -5 -18
-17z"/>
</g>
</svg>
