<?xml version="1.0" standalone="no"?>
<!DOCTYPE svg PUBLIC "-//W3C//DTD SVG 20010904//EN"
 "http://www.w3.org/TR/2001/REC-SVG-20010904/DTD/svg10.dtd">
<svg version="1.0" xmlns="http://www.w3.org/2000/svg"
 width="694.000000pt" height="646.000000pt" viewBox="0 0 694.000000 646.000000"
 preserveAspectRatio="xMidYMid meet">

<g transform="translate(0.000000,646.000000) scale(0.100000,-0.100000)"
fill="#000000" stroke="none">
<path d="M5270 4538 c-19 -5 -55 -12 -80 -15 -25 -3 -50 -9 -55 -13 -6 -5 -38
-12 -73 -16 -34 -3 -62 -11 -62 -15 0 -5 -82 -9 -183 -9 -189 0 -290 -12 -445
-51 -42 -11 -90 -23 -107 -26 -51 -9 -176 -50 -279 -92 -55 -23 -104 -41 -109
-41 -6 0 -29 -9 -51 -19 -23 -10 -66 -30 -96 -43 -49 -22 -83 -46 -168 -118
-13 -11 -28 -20 -34 -20 -13 0 -141 -92 -184 -132 -32 -30 -156 -128 -276
-219 -38 -28 -74 -58 -80 -68 -12 -16 -44 -44 -167 -149 -24 -20 -64 -55 -90
-78 -25 -22 -68 -56 -96 -76 -27 -20 -63 -50 -79 -67 -17 -17 -34 -31 -39 -31
-8 0 -98 -73 -175 -141 -18 -16 -36 -29 -40 -29 -4 0 -25 -17 -46 -37 -21 -21
-62 -56 -92 -78 -29 -22 -142 -112 -251 -200 -275 -222 -296 -235 -377 -235
-32 0 -54 8 -84 30 -23 17 -42 34 -42 38 0 14 -58 42 -89 42 -68 0 -111 -44
-111 -114 0 -39 51 -114 88 -131 12 -5 22 -13 22 -17 0 -4 24 -20 52 -34 103
-52 295 -41 390 21 21 14 42 25 47 25 8 0 118 88 171 136 8 7 89 75 179 150
90 75 171 144 181 153 9 9 34 30 56 48 21 17 73 61 114 97 41 36 79 66 85 66
19 0 55 -31 55 -47 0 -8 -9 -32 -19 -52 -11 -20 -50 -99 -87 -176 -36 -77 -96
-201 -131 -275 -157 -325 -175 -366 -180 -397 -8 -46 14 -51 96 -23 196 68
420 208 579 362 160 155 247 274 349 481 28 56 49 87 59 87 91 0 542 187 562
233 2 4 11 7 20 7 25 0 181 116 300 220 l103 91 42 -37 c23 -20 47 -42 52 -49
17 -21 180 -123 231 -146 199 -86 386 -118 574 -98 118 12 150 22 150 47 0 11
-54 67 -132 138 -197 177 -298 264 -307 264 -5 0 -11 8 -15 18 -3 9 -17 33
-31 52 -19 25 -24 42 -20 60 10 40 52 98 77 106 13 3 26 11 29 17 16 25 76 -5
159 -79 215 -194 216 -194 271 -194 71 0 123 29 187 103 28 33 32 45 32 93 0
62 -14 96 -57 137 -27 25 -29 32 -25 81 5 61 -32 206 -53 206 -7 0 -15 7 -19
15 -3 8 -17 20 -31 27 -14 6 -25 17 -25 25 0 7 -6 13 -14 13 -21 0 -76 33 -76
46 0 5 7 19 15 30 8 10 15 29 15 41 0 12 5 25 10 28 16 10 12 52 -6 59 -18 7
-18 7 -64 -6z"/>
</g>
</svg>
