<?xml version="1.0" standalone="no"?>
<!DOCTYPE svg PUBLIC "-//W3C//DTD SVG 20010904//EN"
 "http://www.w3.org/TR/2001/REC-SVG-20010904/DTD/svg10.dtd">
<svg version="1.0" xmlns="http://www.w3.org/2000/svg"
 width="775.000000pt" height="775.000000pt" viewBox="0 0 775.000000 775.000000"
 preserveAspectRatio="xMidYMid meet">

<g transform="translate(0.000000,775.000000) scale(0.100000,-0.100000)"
fill="#000000" stroke="none">
<path d="M0 3875 l0 -3875 3875 0 3875 0 0 3875 0 3875 -3875 0 -3875 0 0
-3875z m4975 814 l-24 -60 42 -18 c102 -45 158 -142 136 -238 -7 -32 -4 -39
17 -55 30 -24 54 -69 54 -100 0 -37 -36 -86 -87 -118 -81 -52 -76 -54 -283
137 -19 18 -49 39 -65 47 -36 17 -65 55 -88 114 -21 54 -21 96 0 161 26 81
105 149 128 110 5 -6 12 -4 21 8 13 17 14 17 7 -2 -6 -18 -5 -19 12 -5 17 14
18 13 12 -3 -4 -9 21 5 54 33 82 68 94 66 64 -11z m-751 -55 c9 -3 16 -11 16
-16 0 -6 -6 -6 -14 1 -11 9 -25 10 -52 2 -20 -6 -33 -6 -28 -2 8 8 29 15 56
20 3 0 13 -2 22 -5z m-110 -33 c3 -5 15 -7 26 -4 11 3 20 0 20 -6 0 -14 -43
-14 -57 0 -14 14 -56 -29 -48 -49 2 -7 0 -10 -5 -7 -11 7 -14 -8 -4 -18 11
-11 33 5 29 22 -2 10 1 24 7 32 8 11 9 10 4 -3 -3 -10 -1 -18 4 -18 6 0 10 5
10 10 0 6 5 10 11 10 6 0 8 -9 4 -20 -4 -11 -2 -20 4 -20 6 0 8 -7 5 -15 -4
-8 -10 -15 -16 -15 -5 0 -6 6 -2 13 5 9 4 9 -5 1 -6 -6 -13 -20 -16 -32 -3
-19 1 -22 26 -22 16 0 29 5 29 10 0 6 6 10 14 10 7 0 20 7 27 17 13 15 11 15
-18 -1 -35 -18 -44 -12 -15 10 15 12 15 15 2 24 -20 13 -7 13 25 -2 14 -6 25
-15 25 -19 0 -4 -25 -78 -56 -164 -31 -86 -54 -158 -51 -161 2 -2 69 78 147
178 180 230 190 241 207 227 17 -15 17 -26 -3 -33 -12 -5 -14 -1 -8 17 3 12 5
20 3 17 -2 -3 -13 -15 -24 -28 -16 -20 -16 -22 -2 -16 10 3 17 1 17 -5 0 -6 7
-8 15 -5 9 4 16 -3 20 -20 3 -14 7 -38 10 -52 5 -21 8 -24 20 -14 13 11 15 7
15 -19 0 -19 6 -34 15 -37 8 -4 15 -13 15 -21 0 -8 6 -13 12 -11 17 6 35 -14
40 -43 2 -20 9 -24 38 -25 53 -1 54 -2 21 -29 -59 -50 -62 -139 -7 -182 55
-43 356 -316 356 -323 0 -14 -81 -23 -195 -22 -213 1 -407 79 -562 225 l-52
49 -98 -87 c-197 -173 -430 -299 -658 -354 l-50 -13 -47 -96 c-112 -228 -330
-447 -561 -563 -90 -46 -183 -82 -197 -77 -5 2 67 160 160 351 94 191 170 359
170 372 0 30 -25 55 -54 55 -16 0 -84 -52 -202 -153 -447 -383 -504 -421 -628
-422 -84 0 -144 25 -206 86 -30 30 -40 48 -40 71 0 75 81 94 140 33 54 -55
126 -64 199 -25 30 16 530 416 921 738 80 66 146 116 148 112 1 -4 -25 -80
-58 -170 -33 -90 -58 -165 -56 -167 5 -6 10 1 215 305 98 144 186 271 196 282
22 24 207 151 212 146 5 -5 -41 -136 -181 -515 -64 -173 -115 -316 -113 -317
2 -2 41 47 88 109 46 61 104 131 128 154 24 22 41 47 39 53 -2 7 -17 -6 -32
-29 -16 -23 -31 -41 -33 -41 -5 0 37 71 46 80 6 5 15 19 53 82 13 21 27 38 32
38 4 0 1 -11 -8 -25 -9 -14 -14 -31 -10 -37 4 -6 3 -8 -3 -5 -5 3 -17 -3 -27
-14 -19 -23 -15 -36 6 -23 7 5 18 9 23 9 6 0 53 29 105 64 52 35 131 81 175
103 44 22 82 42 84 44 1 1 -9 29 -25 61 -15 32 -35 82 -44 111 -14 46 -18 51
-29 38 -7 -9 -17 -13 -23 -10 -5 3 -18 -6 -30 -21 -34 -43 -32 -20 2 27 19 26
38 42 48 40 13 -2 14 -1 3 6 -18 13 1 47 28 49 15 1 18 -3 13 -15 -5 -15 -4
-15 9 -2 8 8 15 25 15 37 l0 22 -23 -21 c-33 -31 -28 -13 15 53 39 61 72 84
86 60z m104 -43 c-6 -18 -13 -27 -15 -21 -4 11 13 53 22 53 2 0 -1 -15 -7 -32z
m-476 -490 c-7 -7 -12 -8 -12 -2 0 6 3 14 7 17 3 4 9 5 12 2 2 -3 -1 -11 -7
-17z"/>
<path d="M4033 4431 c-11 -18 -10 -18 18 -4 33 17 37 23 11 23 -9 0 -23 -9
-29 -19z"/>
<path d="M3682 3934 c-7 -8 -8 -14 -3 -14 10 0 25 19 20 25 -2 1 -10 -3 -17
-11z"/>
</g>
</svg>
